#!OML:ASF H:\Terrain\Patient Classification 1\Walking\liu\liu.ASF
:FULLY-SPECIFIED
:DEGREES
95
root 9.01625 16.1352 -16.0939 8.72306 6.39326 7.43923
lowerback -4.54748 -5.2072 -8.45213
upperback 0.757941 -6.46963 0.39898
thorax 4.32594 -3.41693 4.53897
lowerneck -19.9049 -2.37636 -12.1688
upperneck 17.6955 -2.5365 13.1453
head 9.16396 -0.591643 6.29878
rclavicle 3.57812e-014 4.77083e-015
rhumerus -53.7357 9.11136 -81.989
rradius 34.9539
rwrist -19.7363
rhand -30.1369 -22.1137
rfingers 7.12502
rthumb -3.44964 -52.0655
lclavicle 3.57812e-014 4.77083e-015
lhumerus -8.80003 -23.0196 79.8679
lradius 37.6064
lwrist 10.5596
lhand -14.6493 -27.0699
lfingers 7.12502
lthumb 11.503 2.59448
rfemur -48.9052 15.592 -1.96795
rtibia 29.2275
rfoot -27.2042 -14.0335
rtoes -15.524
lfemur 12.6408 0.819682 -30.2197
ltibia -3.81667e-014
lfoot -16.4058 5.37426
ltoes -2.82059
96
root 9.01173 16.0938 -15.8884 8.92748 6.75606 7.7308
lowerback -4.76924 -5.38444 -8.67009
upperback 0.783046 -6.66662 0.314106
thorax 4.52218 -3.52504 4.52323
lowerneck -19.9717 -2.42263 -12.1392
upperneck 17.6949 -2.61885 13.2166
head 9.18887 -0.618647 6.30993
rclavicle 7.66315e-014 -2.0276e-014
rhumerus -53.8199 8.91065 -81.8188
rradius 34.8064
rwrist -19.6838
rhand -29.5597 -22.6664
rfingers 7.12502
rthumb -2.89228 -52.6266
lclavicle 7.66315e-014 -2.0276e-014
lhumerus -8.16968 -23.3134 79.5699
lradius 37.8577
lwrist 10.6619
lhand -14.6255 -27.213
lfingers 7.12502
lthumb 11.5259 2.45015
rfemur -49.8023 16.8799 -3.99258
rtibia 28.8101
rfoot -28.6953 -15.4754
rtoes -16.4423
lfemur 13.2441 0.67267 -30.3335
ltibia 2.8625e-014
lfoot -16.6811 5.20304
ltoes -5.63779
97
root 9.00162 16.055 -15.6836 8.91406 7.03285 8.07449
lowerback -4.65733 -5.46466 -9.03204
upperback 0.781833 -6.75888 0.221412
thorax 4.50389 -3.57724 4.62314
lowerneck -20.1297 -2.45109 -11.9798
upperneck 17.7779 -2.68358 13.1561
head 9.25271 -0.639732 6.25696
rclavicle 7.55879e-014 1.63003e-014
rhumerus -54.019 8.4174 -81.3504
rradius 34.6453
rwrist -19.607
rhand -28.3369 -24.0174
rfingers 7.12502
rthumb -1.71125 -53.9903
lclavicle 7.55879e-014 1.63003e-014
lhumerus -7.81324 -23.1535 79.6114
lradius 38.1373
lwrist 10.4418
lhand -14.64 -27.1139
lfingers 7.12502
lthumb 11.512 2.54995
rfemur -50.2298 17.5397 -5.3611
rtibia 28.4368
rfoot -29.6441 -16.7571
rtoes -15.6902
lfemur 14.1061 0.631062 -30.4475
ltibia 1.27222e-014
lfoot -16.842 4.8809
ltoes -7.51957
98
root 8.98959 16.0232 -15.4713 8.77204 7.27751 8.13519
lowerback -4.42989 -5.56249 -9.15771
upperback 0.722862 -6.90978 0.260115
thorax 4.35693 -3.64892 4.73885
lowerneck -20.3452 -2.41298 -11.8629
upperneck 17.8984 -2.62592 13.0365
head 9.3216 -0.61131 6.20844
rclavicle 5.27773e-014 -2.22639e-014
rhumerus -54.2075 7.97396 -80.6835
rradius 34.28
rwrist -19.2797
rhand -26.9049 -25.8277
rfingers 7.12502
rthumb -0.328245 -55.8072
lclavicle 5.27773e-014 -2.22639e-014
lhumerus -7.66979 -22.5997 79.7394
lradius 38.2194
lwrist 9.87591
lhand -14.162 -27.0653
lfingers 7.12502
lthumb 11.9729 2.57229
rfemur -50.1237 17.1014 -5.26809
rtibia 28.1686
rfoot -29.9493 -16.714
rtoes -13.7191
lfemur 15.1253 0.66645 -30.2188
ltibia 6.36111e-015
lfoot -16.8988 4.48641
ltoes -6.73057
99
root 8.97606 15.9965 -15.2583 8.67095 7.45189 8.02439
lowerback -4.16328 -5.7077 -9.16811
upperback 0.604723 -7.14284 0.4378
thorax 4.14313 -3.75674 4.93509
lowerneck -20.4418 -2.32546 -12.0952
upperneck 18.0518 -2.43257 13.0361
head 9.36649 -0.535309 6.28284
rclavicle 2.89729e-014 3.97569e-016
rhumerus -54.3452 7.86006 -80.0759
rradius 33.8937
rwrist -18.9842
rhand -26.8054 -25.6301
rfingers 7.12502
rthumb -0.232105 -55.6097
lclavicle 2.89729e-014 3.97569e-016
lhumerus -7.6234 -22.1301 79.834
lradius 38.3261
lwrist 9.30539
lhand -13.883 -27.3054
lfingers 7.12502
lthumb 12.2419 2.31628
rfemur -49.7408 15.5149 -3.93257
rtibia 28.068
rfoot -29.0325 -15.7869
rtoes -13.093
lfemur 16.066 0.770777 -29.7804
ltibia -2.22639e-014
lfoot -16.7508 4.06264
ltoes -5.46305
100
root 8.95996 15.9547 -15.0516 8.59985 7.51851 8.09975
lowerback -3.93223 -5.76252 -9.34795
upperback 0.582437 -7.23373 0.491005
thorax 4.03427 -3.80233 5.1024
lowerneck -20.4355 -2.29667 -12.1762
upperneck 18.1224 -2.35309 12.9484
head 9.3776 -0.514019 6.27806
rclavicle -2.3556e-014 1.98785e-015
rhumerus -54.3814 7.58183 -79.618
rradius 33.5126
rwrist -18.8799
rhand -27.296 -26.1169
rfingers 7.12502
rthumb -0.705956 -56.0955
lclavicle -2.3556e-014 1.98785e-015
lhumerus -7.43411 -22.0509 79.8957
lradius 38.5649
lwrist 9.11584
lhand -14.0029 -27.4093
lfingers 7.12502
lthumb 12.1263 2.21925
rfemur -49.3279 13.4038 -2.37397
rtibia 28.0439
rfoot -26.8723 -15.1003
rtoes -13.625
lfemur 16.9055 0.947991 -29.5447
ltibia -5.725e-014
lfoot -16.7065 3.61989
ltoes -4.83487
